<svg xmlns="http://www.w3.org/2000/svg" viewBox="0 0 1200 760">
<rect width="1200" height="760" fill="#e8edf8"/>
<rect x="80" y="72" width="1040" height="616" rx="18" fill="#ffffff" stroke="#c4d2eb" stroke-width="3"/>
<rect x="80" y="72" width="1040" height="84" rx="18" fill="#102b4e"/>
<circle cx="132" cy="114" r="19" fill="#00c9a7"/><text x="126" y="122" fill="#102b4e" font-family="Arial" font-size="20" font-weight="700">S</text>
<text x="176" y="120" fill="#ffffff" font-family="Arial" font-size="22" font-weight="700">Signal</text>
<text x="892" y="120" fill="#b9d2d4" font-family="Arial" font-size="15">Customer intelligence</text>
<text x="130" y="222" fill="#102b4e" font-family="Arial" font-size="30" font-weight="700">Customer pulse</text>
<text x="130" y="256" fill="#62717b" font-family="Arial" font-size="16">See what customers need before they ask.</text>
<g font-family="Arial">
<rect x="130" y="304" width="260" height="116" rx="12" fill="#e1f7f0"/><text x="156" y="340" fill="#62717b" font-size="14">Active customers</text><text x="156" y="387" fill="#102b4e" font-size="30" font-weight="700">8,642</text>
<rect x="420" y="304" width="260" height="116" rx="12" fill="#edf2fb"/><text x="446" y="340" fill="#62717b" font-size="14">Retention rate</text><text x="446" y="387" fill="#102b4e" font-size="30" font-weight="700">86.4%</text>
<rect x="710" y="304" width="280" height="116" rx="12" fill="#fff2dc"/><text x="736" y="340" fill="#62717b" font-size="14">Open conversations</text><text x="736" y="387" fill="#102b4e" font-size="30" font-weight="700">124</text>
</g>
<text x="130" y="482" fill="#102b4e" font-family="Arial" font-size="18" font-weight="700">Engagement trend</text>
<path d="M140 610 C230 520 290 575 370 548 S520 438 600 490 S740 405 820 458 S940 360 1060 390" fill="none" stroke="#087c76" stroke-width="8" stroke-linecap="round"/>
<path d="M140 626 H1060 M140 566 H1060 M140 506 H1060" stroke="#d9e1ed" stroke-width="2"/>
<circle cx="820" cy="458" r="10" fill="#00c9a7"/>
</svg>
